<svg width="38" height="34" viewBox="0 0 38 34" fill="none" xmlns="http://www.w3.org/2000/svg">
<path d="M20.9444 17.7133C20.3902 18.7958 20.1421 19.8348 19.7726 20.8221C19.2871 22.1194 18.8411 23.4331 18.3871 24.7441C18.2921 25.0188 18.1444 25.1221 17.8567 25.1221C16.1888 25.1085 14.5183 25.1085 12.8504 25.1221C12.539 25.1248 12.3833 25.0024 12.2487 24.725C10.3776 20.8955 8.50125 17.0687 6.61433 13.2474C6.41376 12.8421 6.45599 12.7034 6.93102 12.7088C8.53292 12.7252 10.1375 12.7279 11.742 12.7007C12.1273 12.6952 12.2751 12.8829 12.4229 13.1902C13.2146 14.8194 14.0195 16.4431 14.8983 18.2274C15.3311 17.0143 15.7138 15.9481 16.0912 14.882C16.6665 13.2501 17.255 11.6209 17.8039 9.98085C17.9491 9.55112 18.1391 9.38521 18.5983 9.39609C20.1579 9.42873 21.7176 9.43145 23.2747 9.39337C23.7761 9.37977 23.9582 9.59464 24.1086 10.0298C24.8396 12.1458 25.597 14.2537 26.3439 16.3616C26.3967 16.5084 26.4574 16.6499 26.5524 16.8865C27.4127 14.5039 28.2414 12.2111 29.07 9.91558C29.4738 8.79773 29.8538 7.669 30.2866 6.56203C30.4714 6.08606 30.4793 5.83584 29.9013 5.72433C29.3445 5.61553 28.8114 5.38707 28.2678 5.21028C28.2651 4.93014 28.5026 4.88934 28.6478 4.78871C30.6983 3.39616 32.7621 2.01993 34.8073 0.619219C35.1399 0.393473 35.2903 0.347236 35.4381 0.804167C36.1796 3.10242 36.9502 5.38979 37.7076 7.67988C37.7472 7.79955 37.7683 7.92738 37.8317 8.17489C37.3012 8.01714 36.8473 7.93826 36.4409 7.74788C35.8893 7.48677 35.7046 7.70164 35.5225 8.22385C34.6965 10.601 33.8362 12.9672 32.9837 15.3362C31.8753 18.415 30.7537 21.4884 29.6691 24.5754C29.5028 25.046 29.2812 25.1765 28.8167 25.1683C27.2808 25.1384 25.7422 25.133 24.2036 25.1629C23.7444 25.1711 23.5623 25.0024 23.4145 24.5754C22.702 22.5165 21.9525 20.4712 21.2136 18.4205C21.1502 18.2274 21.0737 18.0451 20.9444 17.7133Z" fill="#0D810A"/>
<path d="M32.3077 23.8193C31.9171 25.1711 31.2653 26.3624 30.4656 27.4666C27.8371 31.1003 24.2639 33.083 19.9648 33.7848C12.4699 35.0087 5.43684 30.9317 2.5286 23.6262C0.491251 18.5102 0.401523 13.3725 2.78459 8.35713C4.78235 4.15773 8.00464 1.35903 12.499 0.336376C16.8085 -0.64548 20.6563 0.58388 24.1451 3.21939C24.7178 3.65184 25.301 4.08157 25.6731 4.75337C24.9553 4.32636 24.2454 3.8803 23.5144 3.47777C21.7752 2.52039 19.9332 1.85948 17.9565 1.72077C13.6944 1.42158 10.4642 3.36626 7.92547 6.72252C6.93318 8.03347 6.22592 9.50762 5.73241 11.0906C5.02515 13.3534 4.91695 15.6517 5.21252 18.0043C5.53448 20.5882 6.50038 22.9163 7.94394 24.9834C10.4009 28.5001 13.734 30.7522 17.9671 31.2444C24.0659 31.9543 28.6975 29.3759 32.0596 24.2055C32.1388 24.0723 32.2232 23.9472 32.3077 23.8193Z" fill="#0D810A"/>
</svg>
